<?xml version="1.0" standalone="no"?>
<!DOCTYPE svg PUBLIC "-//W3C//DTD SVG 20010904//EN"
 "http://www.w3.org/TR/2001/REC-SVG-20010904/DTD/svg10.dtd">
<svg version="1.0" xmlns="http://www.w3.org/2000/svg"
 width="700.000000pt" height="700.000000pt" viewBox="0 0 700.000000 700.000000"
 preserveAspectRatio="xMidYMid meet">
<metadata>
Created by potrace 1.14, written by Peter Selinger 2001-2017
</metadata>
<g transform="translate(0.000000,700.000000) scale(0.100000,-0.100000)"
fill="#000000" stroke="none">
<path d="M3327 6994 c-1 -1 -45 -4 -97 -8 -115 -7 -226 -20 -345 -41 -78 -14
-285 -62 -350 -82 -119 -36 -254 -82 -305 -103 -30 -12 -68 -28 -85 -34 -47
-17 -356 -171 -426 -213 -86 -49 -99 -61 -120 -108 -31 -70 -12 -148 51 -202
66 -58 619 -477 650 -493 97 -49 249 -72 331 -50 19 5 45 11 59 14 14 2 104
23 200 45 96 23 187 44 201 46 120 21 250 109 322 218 19 28 60 115 92 192 31
77 63 154 70 170 56 128 152 361 170 413 26 71 21 122 -17 175 -39 54 -85 66
-251 64 -81 -1 -149 -2 -150 -3z"/>
<path d="M4957 6639 c-49 -12 -82 -34 -106 -73 -22 -35 -27 -56 -36 -166 -4
-41 -8 -86 -10 -100 -2 -14 -7 -61 -10 -104 -4 -44 -8 -87 -10 -95 -2 -9 -6
-52 -10 -97 -3 -44 -10 -107 -14 -140 -14 -98 -7 -262 13 -319 41 -112 60
-141 170 -250 153 -151 305 -291 362 -331 98 -70 231 -99 364 -80 14 2 48 7
75 11 28 3 66 10 85 15 19 5 55 11 80 14 25 3 70 10 100 16 109 19 296 50 335
55 76 12 84 14 120 31 78 36 111 139 72 219 -59 121 -306 459 -444 606 -131
139 -277 277 -386 364 -21 17 -48 38 -60 49 -87 72 -356 244 -510 325 -105 56
-127 62 -180 50z"/>
<path d="M605 5409 c-60 -17 -112 -93 -240 -351 -40 -82 -94 -203 -120 -270
-26 -68 -50 -132 -55 -143 -66 -156 -154 -566 -178 -829 -15 -168 -7 -587 13
-730 3 -17 7 -49 10 -71 11 -90 16 -123 31 -195 160 -791 556 -1463 1170
-1990 49 -42 167 -135 204 -160 19 -13 37 -27 40 -30 13 -14 99 -70 108 -70 6
0 12 -4 14 -8 10 -26 360 -213 523 -281 44 -18 89 -37 100 -42 179 -76 543
-172 784 -205 25 -3 57 -8 71 -10 151 -25 783 -25 862 1 7 2 33 6 58 9 123 15
429 80 520 112 8 3 15 5 15 4 0 0 50 17 110 38 165 59 274 106 440 190 285
144 324 175 330 270 6 84 -16 111 -207 257 -93 72 -231 177 -306 235 -176 135
-203 152 -282 178 -83 27 -177 33 -260 15 -36 -8 -76 -16 -90 -19 -14 -3 -52
-12 -85 -20 -80 -21 -76 -20 -185 -44 -100 -23 -111 -25 -175 -35 -102 -15
-173 -19 -345 -20 -221 0 -312 9 -485 46 -97 21 -271 72 -320 94 -16 8 -63 27
-104 44 -40 17 -109 51 -153 76 -44 25 -82 45 -84 45 -12 0 -196 130 -281 199
-104 84 -259 237 -341 336 -53 65 -172 232 -172 242 0 4 -6 14 -14 22 -25 29
-124 224 -166 328 -72 182 -131 403 -155 588 -13 104 -14 468 0 555 7 47 16
105 20 130 10 69 58 243 91 334 56 148 48 320 -19 450 -11 21 -99 141 -194
265 -95 124 -206 268 -245 319 -39 51 -86 105 -104 118 -36 28 -98 37 -149 23z"/>
<path d="M3458 4725 c-2 -1 -34 -5 -73 -8 -151 -14 -278 -49 -422 -118 -286
-137 -515 -395 -622 -701 -17 -49 -28 -88 -26 -88 2 0 1 -10 -4 -23 -5 -13
-12 -41 -16 -63 -3 -21 -8 -55 -12 -74 -11 -67 -9 -221 3 -313 43 -307 199
-589 432 -780 494 -403 1193 -371 1642 74 166 165 307 421 337 614 3 17 10 64
17 105 15 94 10 310 -8 360 -3 8 -7 31 -10 50 -7 49 -52 181 -91 265 -154 333
-511 612 -862 674 -104 19 -276 34 -285 26z"/>
<path d="M6640 3697 c-190 -79 -471 -194 -525 -216 -124 -51 -232 -146 -279
-246 -23 -47 -105 -301 -173 -530 -21 -72 -24 -209 -7 -275 23 -85 56 -141
192 -320 132 -174 180 -237 197 -256 6 -6 46 -59 90 -117 44 -58 94 -115 111
-126 68 -47 159 -32 219 33 31 35 45 59 144 251 154 295 275 649 330 960 6 33
13 69 15 80 6 32 15 96 22 155 3 30 8 66 10 80 2 14 6 124 9 245 4 192 3 224
-12 253 -26 52 -76 85 -136 89 -46 3 -71 -4 -207 -60z"/>
</g>
</svg>
