<svg width="224" height="40" viewBox="0 0 224 40" fill="none" xmlns="http://www.w3.org/2000/svg">
<rect width="224" height="40" fill="#1E1E1E"/>
<path d="M213.333 14.6666C211.133 14.6666 209.333 12.8666 209.333 10.6666C209.333 8.4666 211.133 6.6666 213.333 6.6666C215.533 6.6666 217.333 8.4666 217.333 10.6666C217.333 12.8666 215.533 14.6666 213.333 14.6666ZM213.333 7.4666C211.573 7.4666 210.133 8.9066 210.133 10.6666C210.133 12.4266 211.573 13.8666 213.333 13.8666C215.093 13.8666 216.533 12.4266 216.533 10.6666C216.533 8.9066 215.093 7.4666 213.333 7.4666Z" fill="white"/>
<path d="M214.733 9.826C214.733 10.066 214.653 10.306 214.533 10.506C214.413 10.706 214.213 10.826 213.973 10.866L214.893 12.226H214.133L213.213 10.906H212.733V12.226H212.133V8.746H213.653C214.013 8.746 214.293 8.866 214.453 9.066C214.653 9.266 214.733 9.506 214.733 9.826ZM212.733 9.346V10.266H213.613C213.773 10.266 213.893 10.226 213.973 10.146C214.053 10.066 214.093 9.946 214.093 9.826C214.093 9.706 214.053 9.586 213.973 9.506C213.893 9.426 213.773 9.386 213.613 9.386H212.733V9.346Z" fill="white"/>
<path d="M38.6666 33.3333V6.66663H48.4666C52.5333 6.66663 55.9333 7.93329 58.6666 10.5333C61.4 13.1333 62.6666 16.2666 62.6666 20C62.6666 23.7333 61.3333 26.9333 58.6666 29.4666C56 32 52.5333 33.3333 48.4666 33.3333H38.6666ZM44.4 28H48.4C50.8 28 52.7333 27.2666 54.3333 25.7333C55.9333 24.2 56.6666 22.3333 56.6666 20C56.6666 17.6666 55.8666 15.8 54.3333 14.2666C52.8 12.7333 50.8666 12 48.4666 12H44.4666V28H44.4Z" fill="white"/>
<path d="M65.9999 33.3333V6.6666H85.5999V11.9999H71.6666V17.1333H82.5999V22.2666H71.6666V27.9999H85.9999V33.3333H65.9999Z" fill="white"/>
<path d="M98.7333 33.3333L88.6666 6.6666H94.3999L100.867 24.5999H101.067L106.6 6.6666H112L117.6 24.5999H117.8L123.933 6.6666H130L120.267 33.3333H114.533L109.4 15.9999H109.2L104.133 33.3333H98.7333Z" fill="white"/>
<path d="M136.8 22.0666H143.2L140.067 13.3333H139.933L136.8 22.0666ZM126.667 33.3333L136.8 6.6666H143.2L153.333 33.3333H147.333L145.067 27.2666H134.933L132.667 33.3333H126.667Z" fill="white"/>
<path d="M156.667 33.3333V6.6666H162.333V27.9999H174.667V33.3333H156.667Z" fill="white"/>
<path d="M178 33.3333V6.6666H183.667V27.9999H196V33.3333H178Z" fill="white"/>
<path d="M199.333 33.3333V6.6666H204.667V33.3333H199.333Z" fill="white"/>
<g clip-path="url(#clip0_1_456)">
<path d="M15.1458 11.4006C15.603 11.7541 16.1923 11.8814 16.758 11.7588L17.253 11.641L18.4975 11.3581C18.5493 11.344 18.6012 11.3299 18.6483 11.311C19.1904 11.146 19.6288 10.7453 19.8504 10.2221L20.2087 9.35467L20.9488 7.57748C20.9912 7.47848 21.0101 7.37477 21.0053 7.26635C20.9912 7.13907 20.9535 7.02593 20.8734 6.92694C20.7838 6.79966 20.6471 6.71952 20.4915 6.68652C20.4397 6.67238 20.3784 6.66766 20.3218 6.66766L19.8834 6.67238C19.7326 6.67238 19.5864 6.67709 19.4403 6.69124C19.3979 6.68652 19.3601 6.68652 19.3319 6.69595C19.1244 6.70538 18.9217 6.71952 18.7237 6.73837C18.2948 6.77137 17.8658 6.83266 17.451 6.91751C17.3237 6.94108 17.2011 6.96936 17.0785 6.99765C16.9466 7.02593 16.8146 7.05422 16.692 7.09193C16.6401 7.09664 16.593 7.1155 16.5459 7.12493C16.4799 7.14378 16.4091 7.15793 16.3432 7.18621C16.1216 7.24749 15.9047 7.31349 15.6926 7.3842C15.1741 7.56333 14.665 7.77075 14.1794 8.01117C13.9248 8.13373 13.675 8.26101 13.4299 8.40243L13.1895 8.53914L13.0245 8.62871C12.9773 8.65699 12.9349 8.68056 12.8972 8.71827L12.883 8.73242C12.7699 8.84555 12.7086 8.99169 12.6945 9.14725C12.6898 9.21796 12.6992 9.29339 12.7181 9.35938C12.7558 9.50081 12.8359 9.61866 12.9443 9.70822L14.4764 10.882L15.1458 11.4006Z" fill="#FE6000"/>
<path d="M25.5296 29.1383L27.0617 30.3121C27.1748 30.397 27.2502 30.5195 27.2927 30.6562C27.3068 30.727 27.3162 30.8024 27.3068 30.8684C27.3021 30.9862 27.2597 31.0946 27.1984 31.1936L27.1654 31.2266C27.1654 31.2266 27.1654 31.2361 27.156 31.2361C27.1465 31.2549 27.1324 31.2691 27.1183 31.2832C27.0805 31.3209 27.0334 31.3586 26.9815 31.3916L26.5761 31.6179C26.4441 31.6933 26.3074 31.764 26.166 31.83C25.3081 32.292 24.3982 32.6456 23.4649 32.8907C22.3854 33.1783 21.2587 33.3338 20.1226 33.348L19.6842 33.3527C19.6088 33.3527 19.5381 33.348 19.4721 33.3197L19.4674 33.3244C16.2241 33.1924 13.0327 31.896 10.5625 29.4259C8.09237 26.9557 6.80072 23.769 6.67816 20.5258C6.65459 20.4645 6.65459 20.4079 6.64987 20.3466L6.65459 19.8799C6.6593 19.7055 6.6593 19.5358 6.67816 19.3661C6.68758 19.1493 6.70173 18.9371 6.7253 18.725C6.74415 18.5081 6.76772 18.296 6.80072 18.0839C6.82901 17.867 6.862 17.6549 6.90443 17.4522C6.928 17.3249 6.95628 17.2024 6.98457 17.0798C7.01285 16.9478 7.04114 16.8158 7.07885 16.6932C7.08356 16.6414 7.10242 16.5942 7.11185 16.5471C7.1307 16.4811 7.14485 16.4104 7.17313 16.3444C7.2297 16.1276 7.2957 15.9107 7.37112 15.6939C7.45597 15.4487 7.54554 15.1989 7.64925 14.9538C7.72467 14.7558 7.80953 14.5672 7.90381 14.3692C7.96038 14.2372 8.02637 14.1052 8.09708 13.978C8.10651 13.9497 8.12065 13.9167 8.13951 13.8978C8.14894 13.8695 8.15837 13.8507 8.16779 13.8318C8.21022 13.7423 8.25736 13.6574 8.30922 13.5773C8.33279 13.5254 8.35636 13.4736 8.38464 13.4264L8.50249 13.2237L8.60149 13.0493C8.62506 13.0069 8.65334 12.9691 8.68634 12.9361C8.79005 12.8042 8.93618 12.7146 9.10118 12.7004C9.22374 12.6816 9.34631 12.7004 9.45944 12.757C9.55844 12.7994 9.63858 12.8702 9.69986 12.9597L10.8784 14.4871L11.4441 15.2319C11.7835 15.6844 11.9107 16.2643 11.7882 16.8111C11.7788 16.8677 11.7646 16.9195 11.7505 16.9714L11.6468 17.3108L11.4016 18.1027C10.7794 20.9406 11.5713 24.0236 13.7681 26.2203C15.9648 28.4171 18.7791 29.1383 21.5085 28.6622L21.5698 28.6481L22.4136 28.4548L22.4938 28.4312C22.5362 28.4171 22.5798 28.4136 22.6128 28.3994C22.6128 28.3994 22.616 28.3963 22.627 28.3947C22.627 28.3947 22.6835 28.3853 22.7118 28.3758L22.7153 28.3794L23.2433 28.2568C23.8043 28.1295 24.3982 28.2615 24.8555 28.6151L25.5249 29.1336L25.5296 29.1383Z" fill="#FE6000"/>
<path d="M33.3157 19.4816C33.3157 19.4816 33.3251 19.5099 33.3251 19.5193C33.3345 19.5665 33.3392 19.6089 33.3392 19.6561L33.3342 20.0096L33.3342 20.1227C33.3341 20.1699 33.3341 20.217 33.3294 20.2689C33.3292 20.4574 33.3197 20.646 33.3054 20.8298C33.3054 20.9241 33.2959 21.0184 33.2864 21.1127C33.2674 21.3389 33.2484 21.5652 33.2153 21.7867C33.2153 21.7962 33.2105 21.8103 33.2105 21.8197C33.1774 22.0695 33.1395 22.3146 33.0875 22.555C33.0449 22.7954 32.9929 23.0264 32.9315 23.2573C32.922 23.3233 32.9031 23.3893 32.8842 23.4553C32.8606 23.5448 32.8322 23.6297 32.8039 23.7145C32.7566 23.8936 32.7 24.0727 32.6386 24.2565C32.4638 24.7891 32.2466 25.3075 32.0012 25.8165C31.8784 26.0709 31.7463 26.3254 31.6047 26.5704L31.4773 26.8014L31.3876 26.9569C31.364 26.9993 31.3357 27.037 31.3027 27.0699C31.1942 27.1972 31.0527 27.2913 30.8877 27.3054C30.7604 27.3194 30.6379 27.3005 30.5248 27.2439C30.4305 27.1967 30.3504 27.1259 30.2892 27.0457L29.1116 25.5176L28.5417 24.7677C28.4146 24.6026 28.3251 24.4187 28.2545 24.2254C28.1416 23.8954 28.123 23.5371 28.2033 23.193C28.2128 23.1364 28.227 23.0846 28.2411 23.0328L28.6002 21.8639L28.7655 21.3219C28.8269 21.1098 28.9308 20.9119 29.0581 20.7375L29.1714 20.6056C29.3601 20.3889 29.6053 20.2193 29.8788 20.1064L30.6615 19.7863L32.4439 19.0521C32.5759 18.9956 32.7221 18.991 32.8588 19.0241C32.9295 19.0383 32.9954 19.076 33.052 19.1138C33.1839 19.1987 33.2781 19.3307 33.3157 19.4816Z" fill="#FE6000"/>
<path d="M28.6175 9.83179C28.486 9.70889 28.336 9.59605 28.1908 9.48775L28.1713 9.46955C28.0934 9.39672 27.9969 9.33394 27.9005 9.27117C27.5231 8.9915 27.1227 8.72676 26.7092 8.49547C26.6127 8.4327 26.5072 8.37967 26.4062 8.32177L26.2811 8.25053L25.9976 8.09504C25.9638 8.0726 25.9209 8.05989 25.8875 8.04688C25.8637 8.04296 25.8494 8.03873 25.8352 8.0345C25.6831 8.0019 25.5233 8.01674 25.3845 8.09691C25.3195 8.12741 25.2596 8.17188 25.2141 8.22059C25.114 8.32774 25.0525 8.46189 25.043 8.599L24.8533 10.5204L24.7686 11.3629C24.712 11.9213 24.8938 12.5567 25.2851 12.9679C25.2903 12.9819 25.3049 12.9956 25.3146 13.0047L26.581 14.1882C26.62 14.2246 26.6589 14.261 26.7025 14.2926C27.1253 14.6603 27.6967 14.8202 28.2549 14.7306L31.0833 14.2623C31.1866 14.2494 31.289 14.2082 31.3719 14.1488C31.4779 14.0744 31.5546 13.9728 31.5979 13.8581C31.6588 13.7051 31.6533 13.5449 31.5963 13.3912C31.5758 13.3448 31.5554 13.2983 31.5255 13.2521L31.3363 12.9566L31.2866 12.8829C30.9676 12.3748 30.6118 11.8963 30.2287 11.447C30.1595 11.355 30.0907 11.2725 30.0124 11.1902L29.993 11.172C29.8751 11.0345 29.7527 10.9018 29.6209 10.7695C29.4644 10.605 29.2985 10.4408 29.1329 10.286C28.9672 10.1313 28.7922 9.97682 28.6175 9.83179Z" fill="#FE6000"/>
<path d="M23.2964 16.7039C21.4767 14.8843 18.521 14.8795 16.6967 16.7039C15.4946 17.906 15.0845 19.5983 15.471 21.1351C15.6643 21.9317 16.0744 22.6813 16.6967 23.3035C17.319 23.9258 18.0685 24.3359 18.8652 24.5292C20.4019 24.9157 22.0943 24.5056 23.2964 23.3035C25.1207 21.4792 25.1207 18.5282 23.2964 16.7039Z" fill="#FE6000"/>
</g>
<defs>
<clipPath id="clip0_1_456">
<rect width="26.6667" height="26.6667" fill="white" transform="translate(6.66666 6.66666)"/>
</clipPath>
</defs>
</svg>
